<svg width="36" height="36" viewBox="0 0 36 36" fill="none" xmlns="http://www.w3.org/2000/svg">
<g clip-path="url(#clip0_5001_74)">
<path d="M32 0H4C1.79086 0 0 1.79086 0 4V32C0 34.2091 1.79086 36 4 36H32C34.2091 36 36 34.2091 36 32V4C36 1.79086 34.2091 0 32 0Z" fill="#CC1030"/>
<path d="M13.846 26.792H10.796V12.05H9.06299V9.231H13.846V26.792ZM22.046 18.012C22.6 18.012 23.039 17.865 23.363 17.572C23.702 17.264 23.871 16.833 23.871 16.279V13.668C23.871 13.082 23.709 12.628 23.386 12.304C23.078 11.981 22.631 11.819 22.046 11.819C21.445 11.819 20.99 11.981 20.682 12.304C20.374 12.628 20.22 13.082 20.22 13.668V16.024C20.22 16.671 20.374 17.164 20.682 17.504C20.99 17.842 21.445 18.012 22.046 18.012ZM21.722 20.831C20.242 20.831 19.11 20.438 18.325 19.652C17.539 18.866 17.146 17.78 17.146 16.394V13.46C17.146 12.058 17.562 10.964 18.394 10.178C19.241 9.393 20.459 9 22.046 9C23.617 9 24.819 9.393 25.651 10.178C26.498 10.964 26.921 12.058 26.921 13.46V22.471C26.921 23.934 26.483 25.051 25.605 25.821C24.742 26.607 23.555 27 22.045 27C20.566 27 19.411 26.623 18.579 25.868C17.747 25.113 17.308 24.019 17.262 22.587H20.289C20.319 23.172 20.474 23.587 20.751 23.834C21.029 24.081 21.46 24.204 22.045 24.204C22.631 24.204 23.078 24.042 23.385 23.719C23.709 23.395 23.871 22.91 23.871 22.263V19.976C23.641 20.253 23.324 20.468 22.924 20.623C22.5385 20.7617 22.1317 20.8321 21.722 20.831Z" fill="white"/>
</g>
<defs>
<clipPath id="clip0_5001_74">
<rect width="36" height="36" fill="white"/>
</clipPath>
</defs>
</svg>
