<svg width="54" height="36" viewBox="0 0 54 36" fill="none" xmlns="http://www.w3.org/2000/svg">
<g clip-path="url(#clip0_5001_60)">
<mask id="mask0_5001_60" style="mask-type:luminance" maskUnits="userSpaceOnUse" x="0" y="0" width="54" height="36">
<path d="M49.5 0H4.5C2.01472 0 0 2.01472 0 4.5V31.5C0 33.9853 2.01472 36 4.5 36H49.5C51.9853 36 54 33.9853 54 31.5V4.5C54 2.01472 51.9853 0 49.5 0Z" fill="white"/>
</mask>
<g mask="url(#mask0_5001_60)">
<path d="M0 0H54V36H0V0Z" fill="black" fill-opacity="0.8"/>
<path d="M20.282 26.533H8.94702V8.74401H19.207V11.395H11.863V23.904H20.282V26.533ZM22.43 18.58H16.884V15.798H22.43V8.43801H25.324V27.365H22.43V18.58ZM38.816 8.74401V18.756H28.687V8.74401H31.471V11.395H36.053V8.74501L38.816 8.74401ZM31.471 16.346H36.053V13.783H31.472L31.471 16.346ZM45.064 8.43701V19.501H42.17V8.43701H45.064ZM40.57 27.564H33.773C32.253 27.564 31.077 27.234 30.243 26.578C29.411 25.935 28.994 25.022 28.994 23.839C28.994 22.744 29.411 21.846 30.244 21.145C31.077 20.429 32.254 20.071 33.774 20.071H40.57C42.105 20.071 43.288 20.429 44.121 21.145C44.955 21.845 45.371 22.744 45.371 23.839C45.371 25.022 44.955 25.935 44.121 26.578C43.288 27.235 42.104 27.564 40.57 27.564ZM33.773 25.11H40.57C41.154 25.11 41.6 24.993 41.907 24.76C42.229 24.54 42.39 24.234 42.39 23.84C42.39 23.445 42.229 23.13 41.907 22.897C41.6 22.649 41.154 22.525 40.57 22.525H33.773C33.203 22.525 32.758 22.649 32.436 22.897C32.129 23.131 31.976 23.445 31.976 23.839C31.976 24.234 32.129 24.54 32.436 24.759C32.758 24.993 33.203 25.109 33.773 25.109V25.11Z" fill="white"/>
</g>
</g>
<defs>
<clipPath id="clip0_5001_60">
<rect width="54" height="36" fill="white"/>
</clipPath>
</defs>
</svg>
