<svg width="54" height="36" viewBox="0 0 54 36" fill="none" xmlns="http://www.w3.org/2000/svg">
<g clip-path="url(#clip0_5001_67)">
<mask id="mask0_5001_67" style="mask-type:luminance" maskUnits="userSpaceOnUse" x="0" y="0" width="54" height="36">
<path d="M49.5 0H4.5C2.01472 0 0 2.01472 0 4.5V31.5C0 33.9853 2.01472 36 4.5 36H49.5C51.9853 36 54 33.9853 54 31.5V4.5C54 2.01472 51.9853 0 49.5 0Z" fill="white"/>
</mask>
<g mask="url(#mask0_5001_67)">
<path d="M0 0H54V36H0V0Z" fill="black" fill-opacity="0.8"/>
<path d="M8.32101 8.74399H18.841V11.395H14.699C14.6708 12.2064 14.6268 13.0173 14.567 13.827C14.5107 14.5969 14.423 15.3642 14.304 16.127C14.8877 17.7764 15.6524 19.356 16.584 20.837C17.5094 22.3099 18.6382 23.6448 19.937 24.802C19.747 24.962 19.557 25.116 19.367 25.262L18.819 25.722C18.629 25.882 18.439 26.036 18.249 26.182C18.059 26.343 17.877 26.496 17.701 26.642C16.7996 25.7658 15.9848 24.8047 15.268 23.772C14.5309 22.7192 13.8718 21.614 13.296 20.465C12.9207 21.6082 12.4594 22.7214 11.916 23.795C11.3896 24.8462 10.7733 25.8499 10.074 26.795C9.63271 26.5748 9.19433 26.3488 8.75901 26.117C8.33256 25.8815 7.90919 25.6405 7.48901 25.394C8.97901 23.349 10.059 21.209 10.732 18.974C11.404 16.74 11.762 14.214 11.806 11.395H8.32001V8.74499L8.32101 8.74399ZM24.298 18.34V27.365H21.383V8.43799H24.298V15.558H26.752V18.34H24.298ZM37.938 8.74399V18.624H28.054V8.74399H37.938ZM30.838 16.193H35.155V11.176H30.837L30.838 16.193ZM46.485 12.622V15.382H44.031V19.698H41.116V8.43799H44.031V12.622H46.485ZM44.031 20.64V27.562H41.116V23.247H28.25V20.64H44.031Z" fill="white"/>
</g>
</g>
<defs>
<clipPath id="clip0_5001_67">
<rect width="54" height="36" fill="white"/>
</clipPath>
</defs>
</svg>
