<svg width="93" height="16" viewBox="0 0 93 16" fill="none" xmlns="http://www.w3.org/2000/svg">
<g clip-path="url(#clip0_5002_63)">
<path d="M33.321 4.47102V11.51C33.321 14.343 31.814 15.997 29.132 15.997C26.45 15.997 24.992 14.34 24.992 11.51V4.47002C24.992 1.65302 26.466 -0.000976562 29.132 -0.000976562C31.798 -0.000976562 33.321 1.65702 33.321 4.47002V4.47102ZM30.523 4.00902C30.523 3.03202 29.993 2.40302 29.18 2.40302C28.368 2.40302 27.79 3.03302 27.79 4.00902V11.991C27.79 12.968 28.352 13.598 29.164 13.598C29.977 13.598 30.524 12.968 30.524 11.991V4.01002L30.523 4.00902ZM41.14 15.817L39.98 10.385H38.175V15.817H35.409V0.167023H39.549C42.068 0.167023 43.575 1.54202 43.575 4.19202V6.12902C43.575 7.52002 43.045 8.58002 42.331 9.24202L43.921 15.817H41.14ZM39.087 8.06602C40.163 8.06602 40.761 7.46902 40.761 6.24502V4.35502C40.761 3.14802 40.147 2.53502 39.087 2.53502H38.21V8.06602H39.087ZM48.374 0.167023V15.817H45.608V0.167023H48.374ZM53.523 16C51.817 15.984 50.458 14.677 50.458 12.223V4.47002C50.459 1.63802 51.934 2.34375e-05 54.668 2.34375e-05C57.401 2.34375e-05 58.708 1.47402 58.708 3.77802V5.86602H55.958V3.99302C55.958 2.84902 55.428 2.40302 54.636 2.40302C53.842 2.40302 53.261 3.03302 53.261 3.99302V11.991C53.261 13.135 53.839 13.598 54.619 13.598C55.4 13.598 55.994 12.952 55.994 12.108V9.67102H54.604V7.38502H58.712V15.815H56.409L56.209 14.555H56.01C55.58 15.631 54.767 16.013 53.527 15.997L53.523 16ZM63.494 0.167023V15.817H60.728V0.167023H63.494ZM71.393 4.58702V0.167023H74.011V15.817H71.293L68.46 6.36002H68.312L68.412 9.92302V15.82H65.778V0.167023H68.81L71.329 8.59702H71.496L71.396 4.58702H71.393ZM81.743 12.589L78.447 12.557L77.949 15.82H75.1L78.098 0.167023H82.171L85.12 15.817H82.223L81.741 12.589H81.744H81.743ZM81.38 10.222L80.667 5.46702L80.185 2.65002H80.002L79.539 5.46702L78.81 10.222H81.38ZM92.607 13.45V15.817H86.179V0.167023H88.945V13.45H92.607Z" fill="white"/>
<path d="M14.144 0.166992L10.803 10.549C10.703 10.858 10.247 10.787 10.247 10.462V0.166992H0V4.83699H4.95V15.817H14.68L19.97 0.166992H14.144Z" fill="#FF153C"/>
</g>
<defs>
<clipPath id="clip0_5002_63">
<rect width="93" height="16" fill="white"/>
</clipPath>
</defs>
</svg>
