<svg width="62" height="16" viewBox="0 0 62 16" fill="none" xmlns="http://www.w3.org/2000/svg">
<g clip-path="url(#clip0_5001_57)">
<path d="M34.191 4.471V11.509C34.191 14.342 32.685 15.997 30.003 15.997C27.32 15.997 25.863 14.339 25.863 11.509V4.471C25.863 1.657 27.337 0 30.003 0C32.669 0 34.191 1.657 34.191 4.471ZM31.393 4.009C31.393 3.032 30.863 2.403 30.051 2.403C29.238 2.403 28.66 3.033 28.66 4.009V11.991C28.66 12.968 29.222 13.597 30.035 13.597C30.847 13.597 31.393 12.967 31.393 11.991V4.01V4.009ZM41.891 4.587V0.167H44.509V15.817H41.79L38.958 6.36H38.81L38.91 9.922V15.817H36.276V0.167H39.308L41.827 8.596H41.994L41.894 4.587H41.891ZM53.22 13.45V15.817H46.796V0.167H49.562V13.45H53.22ZM57.557 4.67L58.765 0.168L61.813 0.152L58.203 10.984V15.821H55.453V10.919L51.878 0.148L55.01 0.164L56.234 4.667L56.796 6.803H57.011L57.557 4.667V4.67Z" fill="white"/>
<path d="M15.014 0.166992L11.674 10.549C11.574 10.857 11.118 10.787 11.118 10.462V0.166992H0.870972V4.83699H5.82097V15.817H15.551L20.84 0.166992H15.013H15.014Z" fill="#FF153C"/>
</g>
<defs>
<clipPath id="clip0_5001_57">
<rect width="62" height="16" fill="white"/>
</clipPath>
</defs>
</svg>
